<?xml version="1.0" encoding="utf-8"?>
<!-- Generator: Adobe Illustrator 23.0.3, SVG Export Plug-In . SVG Version: 6.00 Build 0)  -->
<svg version="1.1" id="Capa_1" xmlns="http://www.w3.org/2000/svg" xmlns:xlink="http://www.w3.org/1999/xlink" x="0px" y="0px"
	 viewBox="0 0 425.2 425.2" style="enable-background:new 0 0 425.2 425.2;" xml:space="preserve">
<style type="text/css">
	.st0{fill:#2A65A3;}
	.st1{fill:none;stroke:#428DCA;stroke-width:6;stroke-miterlimit:10;}
	.st2{fill:#FFFFFF;}
</style>
<polygon class="st0" points="308.21,35.34 116.99,35.34 21.37,200.95 116.99,366.55 308.21,366.55 403.82,200.95 "/>
<polygon class="st1" points="296.43,55.75 128.77,55.75 44.93,200.95 128.77,346.15 296.43,346.15 380.26,200.95 "/>
<g>
	<path class="st2" d="M297.85,212.83c6.6,8.9,9.9,19.85,9.9,32.85c0,11.6-3.05,21.75-9.15,30.45c-6.1,8.7-14.8,15.45-26.1,20.25
		c-11.3,4.8-24.55,7.2-39.75,7.2h-79.8c-8.2,0-14.5-2.2-18.9-6.6c-4.4-4.4-6.6-10.7-6.6-18.9v-160.5c0-8.2,2.2-14.5,6.6-18.9
		c4.4-4.4,10.7-6.6,18.9-6.6h76.8c22.2,0,39.85,4.95,52.95,14.85c13.1,9.9,19.65,23.25,19.65,40.05c0,10.8-2.9,20.35-8.7,28.65
		c-5.8,8.3-13.9,14.35-24.3,18.15C281.75,197.58,291.25,203.94,297.85,212.83z M181.15,175.18h39.3c10.4,0,18-1.6,22.8-4.8
		c4.8-3.2,7.2-8.3,7.2-15.3c0-7.4-2.4-12.8-7.2-16.2c-4.8-3.4-12.4-5.1-22.8-5.1h-39.3V175.18z M249.4,256.63
		c4.7-3.5,7.05-9.25,7.05-17.25c0-8-2.35-13.75-7.05-17.25c-4.7-3.5-12.55-5.25-23.55-5.25h-44.7v45h44.7
		C236.85,261.88,244.7,260.13,249.4,256.63z"/>
</g>
<g>
</g>
<g>
</g>
<g>
</g>
<g>
</g>
<g>
</g>
<g>
</g>
</svg>
